<?xml version="1.0" encoding="UTF-8"?>
<svg version="1.1" xmlns="http://www.w3.org/2000/svg" width="1024" height="1024">

<path d="M0 0 C1.63049859 -0.00187002 3.26099672 -0.00417148 4.89149415 -0.00686532 C9.35722917 -0.01296622 13.82294542 -0.01285174 18.28868365 -0.01167095 C23.11094623 -0.01146651 27.93320286 -0.01698988 32.75546265 -0.02172852 C42.19815886 -0.03002649 51.64084883 -0.03278298 61.08354838 -0.03334089 C68.76198212 -0.0338165 76.4404138 -0.03587351 84.11884689 -0.03904152 C105.9033509 -0.04784614 127.68784999 -0.05246125 149.4723558 -0.05171105 C150.64617657 -0.05167109 151.81999733 -0.05163113 153.02938843 -0.05158997 C154.20464771 -0.05154909 155.37990699 -0.0515082 156.59078018 -0.05146609 C175.63046997 -0.05105978 194.67013997 -0.06062598 213.70982404 -0.07472833 C233.2740875 -0.08910451 252.83834131 -0.09599782 272.40261018 -0.09513456 C283.38058392 -0.09480299 294.35853692 -0.09753221 305.33650589 -0.10831261 C314.68477656 -0.11743399 324.03301708 -0.11957945 333.38129027 -0.11280318 C338.14665924 -0.10954612 342.91197042 -0.1094518 347.67733383 -0.11815643 C352.04849381 -0.12605853 356.41955054 -0.12455241 360.79070811 -0.1158723 C362.36337436 -0.11434543 363.93604846 -0.11612244 365.50870545 -0.12173238 C393.94109163 -0.21635465 418.23704565 6.93100028 440.98495483 24.13371277 C441.70940796 24.67254089 442.43386108 25.21136902 443.18026733 25.76652527 C462.35899299 41.21821112 474.58343219 67.49523924 477.60866928 91.58356094 C479.3829689 108.32713658 479.27254419 125.09758345 479.24640417 141.9105835 C479.24182076 146.28429256 479.24889229 150.65798658 479.25436401 155.0316925 C479.26319859 163.57058627 479.26136245 172.10944463 479.25553873 180.64833972 C479.25099749 187.59839507 479.25041991 194.54844059 479.25258636 201.49849701 C479.25289283 202.4926902 479.2531993 203.4868834 479.25351505 204.51120366 C479.25415459 206.5317749 479.25480302 208.55234614 479.25546023 210.57291737 C479.26114645 229.46544942 479.25463317 248.35796197 479.2438595 267.25049081 C479.23493109 283.40623602 479.23647351 299.56195246 479.24569702 315.71769714 C479.25643955 334.54254607 479.2605915 353.36737795 479.25447249 372.19222951 C479.2538355 374.20604149 479.25320675 376.21985348 479.25258636 378.23366547 C479.25227781 379.22412514 479.25196926 380.21458481 479.25165136 381.23505841 C479.24993591 388.16212415 479.25281461 395.08917894 479.25754547 402.01624298 C479.26319903 410.47931962 479.26154528 418.94235923 479.25098398 427.40543172 C479.24578587 431.71049276 479.24356811 436.01549246 479.25028229 440.32055283 C479.27185054 455.48630583 479.23671592 470.60656029 478.10549927 485.74046326 C477.99164867 487.26777702 477.99164867 487.26777702 477.87549806 488.82594562 C475.39907918 517.63651051 461.58459022 544.42840556 439.55136108 563.20793152 C409.31665778 587.23634344 375.00375102 588.60578213 337.99410057 588.52588677 C333.2824312 588.51902639 328.57079365 588.52961155 323.85913086 588.53782654 C314.65802031 588.55109114 305.45698363 588.54831918 296.25587031 588.53958862 C288.77319708 588.53278527 281.2905444 588.53190674 273.80786896 588.53516006 C272.73878237 588.53561976 271.66969579 588.53607946 270.56821264 588.53655309 C268.39574628 588.53751236 266.22327993 588.538485 264.05081359 588.53947087 C243.73264033 588.54800301 223.41450785 588.53822403 203.09634128 588.52206977 C185.69265564 588.50866086 168.28903003 588.51100364 150.88534546 588.52482605 C130.62860987 588.5409071 110.37190989 588.54718733 90.11516881 588.53798926 C87.95237176 588.5370337 85.78957471 588.53609058 83.62677765 588.53516006 C82.56288971 588.53469724 81.49900178 588.53423441 80.40287481 588.53375756 C72.93407891 588.53117582 65.46530575 588.53552085 57.99651337 588.54259872 C48.88792086 588.5510417 39.77940583 588.5486747 30.67082211 588.53275649 C26.03066622 588.52491248 21.39063919 588.52171567 16.75048447 588.53170395 C12.49190329 588.54073181 8.23356881 588.53558693 3.97500959 588.51977129 C2.44573771 588.51645746 0.91644438 588.51803951 -0.61281338 588.52539866 C-14.47954869 588.58693943 -28.18641977 586.9968467 -41.32754517 582.32121277 C-42.07552368 582.06114441 -42.8235022 581.80107605 -43.59414673 581.53312683 C-71.20078412 571.68125322 -92.1473224 551.63350696 -104.70645142 525.30558777 C-112.66485885 506.01535841 -115.33845847 485.98358782 -115.26901245 465.23512268 C-115.27132386 463.7025658 -115.2745049 462.17001004 -115.27846694 460.63745654 C-115.28673082 456.47466329 -115.28272839 452.31196304 -115.2764945 448.14916968 C-115.27193594 443.64046112 -115.27897068 439.13176762 -115.28445435 434.62306213 C-115.29331521 425.80795874 -115.29144075 416.99288954 -115.28562906 408.17778485 C-115.28109779 401.005393 -115.28050599 393.83301069 -115.2826767 386.66061783 C-115.28298316 385.63670319 -115.28328963 384.61278855 -115.28360538 383.5578462 C-115.28424489 381.47719283 -115.28489332 379.39653946 -115.28555056 377.3158861 C-115.29124463 357.83501604 -115.28471139 338.35416485 -115.27394983 318.87329789 C-115.26502322 302.19886292 -115.26656083 285.52445582 -115.27578735 268.85002136 C-115.28652025 249.44440745 -115.29068695 230.03881008 -115.28456283 210.63319361 C-115.2839258 208.55869651 -115.28329705 206.48419941 -115.2826767 204.4097023 C-115.28236815 203.38926875 -115.28205959 202.3688352 -115.28174169 201.31747942 C-115.28002319 194.16618659 -115.2829117 187.01490433 -115.2876358 179.86361313 C-115.29327865 171.1301853 -115.29165764 162.39679336 -115.28107432 153.66336958 C-115.27586177 149.21707781 -115.27368414 144.77084561 -115.28037262 140.32455444 C-115.3312608 103.25680352 -115.08985135 67.00293696 -90.01504517 37.13371277 C-89.26674438 36.16111511 -89.26674438 36.16111511 -88.50332642 35.16886902 C-72.54741501 15.00681478 -46.0488508 4.14680716 -21.26598549 0.59665966 C-14.2008746 -0.15780094 -7.09594121 -0.00772483 0 0 Z " fill="#3AA2FE" transform="translate(330.0150451660156,215.8662872314453)"/>
<path d="M0 0 C1.02950177 -0.0055344 2.05900354 -0.01106879 3.11970234 -0.0167709 C6.58614708 -0.03043684 10.05187921 -0.01537554 13.51831055 -0.00050354 C15.99661567 -0.00428454 18.47491869 -0.00978277 20.95321655 -0.01687622 C26.99585074 -0.02942108 33.03820328 -0.02323902 39.08081031 -0.00820064 C46.11389569 0.00863818 53.14692878 0.0054519 60.18002808 0.00170528 C72.72675041 -0.00417669 85.27337245 0.01001144 97.82006836 0.03465271 C110.00174723 0.0585745 122.1832921 0.06565742 134.36499023 0.05516052 C147.62200445 0.04375754 160.87895666 0.04181356 174.13597012 0.05625862 C175.54892921 0.0577845 176.96188831 0.05930485 178.37484741 0.06081963 C179.0700961 0.06157744 179.76534479 0.06233525 180.48166162 0.06311603 C185.38700455 0.06786367 190.29231984 0.06600404 195.19766235 0.06175423 C201.79681029 0.05632013 208.39579909 0.06704447 214.99492264 0.08870888 C217.42216997 0.09429064 219.84943515 0.0947294 222.27668381 0.08975601 C225.57968469 0.0838352 228.88210974 0.09624698 232.18505859 0.11352539 C233.15479268 0.10751535 234.12452677 0.1015053 235.12364674 0.09531313 C236.00558547 0.10375307 236.8875242 0.11219301 237.79618835 0.12088871 C238.55893916 0.12191784 239.32168997 0.12294697 240.10755444 0.12400728 C242.6316758 0.60365766 243.52345125 1.50548706 245.0925293 3.50120544 C245.47729015 5.43208599 245.47729015 5.43208599 245.49125671 7.65835571 C245.51006393 8.92666481 245.51006393 8.92666481 245.5292511 10.22059631 C245.52709846 11.60702835 245.52709846 11.60702835 245.52490234 13.02146912 C245.53509399 13.99726425 245.54528564 14.97305939 245.55578613 15.97842407 C245.58601756 19.20873175 245.59519767 22.43874339 245.60424805 25.66917419 C245.62108719 27.90692132 245.63923638 30.14465894 245.65864563 32.38238525 C245.70623468 38.27602672 245.7359865 44.16962967 245.76208496 50.06340027 C245.79707675 57.13281262 245.85411471 64.20207698 245.90747833 71.27136993 C245.98609653 82.01463 246.03662372 92.75769496 246.0925293 103.50120544 C278.7625293 103.50120544 311.4325293 103.50120544 345.0925293 103.50120544 C345.12991211 96.31726013 345.16729492 89.13331482 345.20581055 81.73167419 C345.2360766 77.18803012 345.26721554 72.64442587 345.30151367 68.10081482 C345.35590268 60.88460759 345.40700982 53.66847916 345.43896484 46.45213318 C345.46492148 40.63595934 345.50526953 34.82004906 345.55571556 29.00403786 C345.57243608 26.78205448 345.58391794 24.56002547 345.5901432 22.3379879 C345.59972794 19.2321987 345.62771971 16.12709175 345.66015625 13.02146912 C345.65872116 12.09718109 345.65728607 11.17289307 345.6558075 10.22059631 C345.66834564 9.37505692 345.68088379 8.52951752 345.69380188 7.65835571 C345.69841084 6.9236867 345.70301981 6.1890177 345.70776844 5.43208599 C346.20439427 2.93982321 347.10608827 2.04282826 349.0925293 0.50120544 C351.55908203 0.11352539 351.55908203 0.11352539 354.52612305 0.09715271 C356.19300171 0.07812645 356.19300171 0.07812645 357.89355469 0.05871582 C359.09359131 0.06165146 360.29362793 0.0645871 361.5300293 0.06761169 C363.37745728 0.05974892 363.37745728 0.05974892 365.26220703 0.05172729 C368.5359957 0.04365171 371.80936688 0.05078654 375.08312988 0.0620575 C377.09070892 0.06370395 379.09772274 0.05171727 381.10522461 0.03465271 C384.955431 0.00406164 388.80472122 0.00056233 392.6550293 0.00511169 C393.85506592 -0.00612228 395.05510254 -0.01735626 396.29150391 -0.02893066 C397.95838257 -0.01485924 397.95838257 -0.01485924 399.65893555 -0.00050354 C400.63805908 -0.00033737 401.61718262 -0.0001712 402.62597656 0 C405.0925293 0.50120544 405.0925293 0.50120544 406.72291905 2.23990011 C408.28566639 4.82008591 408.46906275 6.1928174 408.47284603 9.1832962 C408.48128597 10.12582701 408.48972591 11.06835782 408.49842161 12.03945017 C408.49241156 13.07173542 408.48640152 14.10402066 408.48020935 15.16758728 C408.48828766 16.81619381 408.48828766 16.81619381 408.49652916 18.49810553 C408.51087703 22.19391302 408.50368804 25.88936579 408.49658203 29.58518982 C408.50228199 32.22951397 408.50914371 34.87381233 408.51737976 37.51812744 C408.53458817 43.96261022 408.53540364 50.40699559 408.53016686 56.85149539 C408.52612804 62.08831372 408.52756526 67.32510322 408.53291512 72.56192017 C408.53366354 73.30679549 408.53441196 74.05167081 408.53518306 74.81911811 C408.53671451 76.33224206 408.53825286 77.845366 408.53979803 79.35848993 C408.55353022 93.55241407 408.54808013 107.74628311 408.53661282 121.94020599 C408.5266776 134.93178912 408.53962477 147.92322988 408.56354701 160.91479105 C408.58791574 174.24909817 408.5975515 187.58333892 408.59089428 200.91766787 C408.58739736 208.4061017 408.58966529 215.89442599 408.60714531 223.38284302 C408.62183944 229.75693435 408.6225394 236.130839 408.6050744 242.50492656 C408.5965391 245.75816428 408.59662877 249.01099797 408.60972595 252.26423073 C408.62283296 255.78808085 408.61147896 259.31101383 408.59373474 262.83482361 C408.60333975 263.86710886 408.61294475 264.8993941 408.62284082 265.96296072 C408.55105754 272.85678089 408.55105754 272.85678089 406.21771336 276.1361084 C403.5520991 277.84834699 401.90522318 278.00806546 398.74487305 278.01878357 C397.14301147 278.03769653 397.14301147 278.03769653 395.50878906 278.05699158 C394.36079834 278.04889465 393.21280762 278.04079773 392.0300293 278.03245544 C390.25486938 278.0381958 390.25486938 278.0381958 388.44384766 278.04405212 C385.94229278 278.04677354 383.44070955 278.03939648 380.93920898 278.02268982 C377.10685881 278.00128548 373.27638355 278.02248589 369.4440918 278.04808044 C367.01440015 278.04543721 364.58470968 278.04031233 362.1550293 278.03245544 C361.00703857 278.04055237 359.85904785 278.04864929 358.67626953 278.05699158 C357.60836182 278.04438293 356.5404541 278.03177429 355.44018555 278.01878357 C354.50182861 278.0156012 353.56347168 278.01241882 352.59667969 278.00914001 C350.0925293 277.50120544 350.0925293 277.50120544 347.79142761 276.11587524 C345.11374638 271.99482092 345.53052787 267.96272745 345.5625 263.14891052 C345.55376862 262.09654709 345.54503723 261.04418365 345.53604126 259.95993042 C345.51163439 256.48002652 345.51507778 253.00071539 345.51831055 249.52073669 C345.50587169 247.10745221 345.49153924 244.6941768 345.47538757 242.28091431 C345.43731141 235.92730343 345.42216395 229.5738486 345.41259766 223.22013855 C345.39287199 213.03867226 345.33616738 202.8573253 345.28383446 192.67598534 C345.2684264 189.11004987 345.26128575 185.54417342 345.25569153 181.97821045 C345.24867914 179.80724559 345.24157852 177.63628101 345.234375 175.46531677 C345.23490372 174.46531647 345.23543243 173.46531616 345.23597717 172.43501282 C345.2299649 171.07852882 345.2299649 171.07852882 345.22383118 169.69464111 C345.2225739 168.90432904 345.22131662 168.11401697 345.22002125 167.29975605 C345.28835623 165.47858623 345.28835623 165.47858623 344.0925293 164.50120544 C341.08439443 164.40057798 338.09917901 164.36505805 335.09057617 164.37181091 C334.14594009 164.37005859 333.20130402 164.36830627 332.2280426 164.36650085 C329.0891031 164.36208064 325.95021942 164.36502092 322.8112793 164.36839294 C320.64034006 164.36771995 318.46940089 164.36674997 316.29846191 164.36549377 C311.74201746 164.36401657 307.18559257 164.36617208 302.62915039 164.37083435 C296.77426344 164.37653165 290.91942232 164.37325276 285.06453705 164.36726189 C280.57972871 164.36365688 276.09493134 164.36479458 271.61012268 164.36738968 C269.45064794 164.36805912 267.29117221 164.36722995 265.13169861 164.36491013 C262.11926622 164.36238459 259.10690917 164.3662228 256.09448242 164.37181091 C255.19262711 164.36978668 254.29077179 164.36776245 253.36158752 164.36567688 C249.41145946 163.98362142 249.41145946 163.98362142 246.0925293 165.50120544 C245.99364366 166.89620196 245.96345223 168.29614596 245.96122742 169.69464111 C245.95721924 170.59896378 245.95321106 171.50328644 245.94908142 172.43501282 C245.94961014 173.43501312 245.95013885 174.43501343 245.95068359 175.46531677 C245.94720917 176.51242325 245.94373474 177.55952972 245.94015503 178.6383667 C245.93278242 180.92085039 245.9274451 183.20334133 245.92386436 185.48583412 C245.91672398 189.09540314 245.90107585 192.70483421 245.88252258 196.31436157 C245.82993757 206.58015552 245.78205817 216.84587542 245.76660156 227.11180115 C245.75653822 233.38302015 245.72725333 239.65389501 245.68528175 245.92497826 C245.67294121 248.31918933 245.66785603 250.71344896 245.67008018 253.10769081 C245.67242452 256.45513944 245.65033103 259.80159567 245.62255859 263.14891052 C245.62916 264.14283813 245.63576141 265.13676575 245.64256287 266.16081238 C245.55191981 272.79697516 245.55191981 272.79697516 243.38690186 276.11587524 C240.65092377 277.76784456 239.03960882 278.00773005 235.85253906 278.01878357 C234.80787979 278.03139221 233.76322052 278.04400085 232.68690491 278.05699158 C231.00243507 278.04484619 231.00243507 278.04484619 229.28393555 278.03245544 C228.12506332 278.03628235 226.9661911 278.04010925 225.77220154 278.04405212 C223.3219211 278.04677357 220.87161172 278.03939626 218.42138672 278.02268982 C214.6724354 278.00130473 210.92540491 278.02247562 207.17651367 278.04808044 C204.79565007 278.04543683 202.41478766 278.04031117 200.03393555 278.03245544 C198.91297989 278.04055237 197.79202423 278.04864929 196.63710022 278.05699158 C195.58928879 278.04438293 194.54147736 278.03177429 193.46191406 278.01878357 C192.54354263 278.0156012 191.6251712 278.01241882 190.67897034 278.00914001 C187.09061558 277.30444603 185.61505377 276.16178039 183.0925293 273.50120544 C182.59035285 270.43657488 182.41362443 267.92380274 182.45329285 264.85795593 C182.44493717 263.97657448 182.43658149 263.09519302 182.42797261 262.18710303 C182.40599096 259.2279275 182.41966554 256.26998683 182.43310547 253.31077576 C182.4246554 251.19197647 182.41401275 249.07318496 182.40133667 246.95440674 C182.37312367 241.196455 182.37567381 235.43887494 182.38363051 229.68087482 C182.38674962 223.66566755 182.36173869 217.65057988 182.3396759 211.63542175 C182.30217967 200.24221703 182.2900846 188.84913167 182.2870515 177.45587134 C182.28236673 164.48619739 182.24946206 151.51664346 182.21415365 138.54702234 C182.14214884 111.86506761 182.10941667 85.18325591 182.0925293 58.50120544 C162.2925293 58.50120544 142.4925293 58.50120544 122.0925293 58.50120544 C122.07851074 68.18597229 122.07851074 68.18597229 122.06420898 78.06639099 C122.03049403 99.36050257 121.97517801 120.65451713 121.90862656 141.94855022 C121.86879339 154.86348368 121.83642262 167.77835583 121.8215332 180.69334412 C121.80853887 191.9482031 121.78163099 203.20292741 121.73791623 214.45771056 C121.71525156 220.41872276 121.69962162 226.37956856 121.70064545 232.34062767 C121.7013891 237.94915911 121.68355703 243.55732201 121.65136147 249.16575813 C121.64282946 251.22610164 121.64113479 253.28648632 121.64672661 255.3468399 C121.65333832 258.15688217 121.63551383 260.96574211 121.61151123 263.77566528 C121.61927165 264.59376401 121.62703207 265.41186274 121.63502765 266.25475234 C121.57779449 270.03144585 121.23455989 272.27389564 119.21422958 275.50728989 C116.59255069 277.97107158 115.39434068 278.12859219 111.83666992 278.13230896 C110.78878296 278.14484207 109.740896 278.15737518 108.66125488 278.17028809 C106.97207947 278.15040077 106.97207947 278.15040077 105.2487793 278.13011169 C104.0875354 278.13252365 102.9262915 278.13493561 101.7298584 278.13742065 C99.27535588 278.13644141 96.82083149 278.12302967 94.36645508 278.09812927 C90.60641559 278.06383211 86.84872661 278.0774657 83.08862305 278.09690857 C80.70449844 278.09001011 78.32037992 278.08033773 75.9362793 278.06761169 C74.81016235 278.07257156 73.68404541 278.07753143 72.52380371 278.0826416 C71.47591675 278.06680527 70.42802979 278.05096893 69.34838867 278.03465271 C67.96750061 278.02535484 67.96750061 278.02535484 66.55871582 278.01586914 C63.1608234 277.30676954 62.17673794 276.284186 60.0925293 273.50120544 C59.69644049 270.49827805 59.54529522 267.86105057 59.57354736 264.85795593 C59.56604611 263.97657448 59.55854486 263.09519302 59.5508163 262.18710303 C59.5304855 259.22808955 59.53865239 256.26983838 59.54663086 253.31077576 C59.53789879 251.19197835 59.5274143 249.07318754 59.51530457 246.95440674 C59.48737927 241.19651057 59.48404133 235.43882889 59.48502445 229.68087482 C59.48190097 223.6656746 59.45629454 217.65057179 59.43304443 211.63542175 C59.39243762 200.2422396 59.3721327 188.84911474 59.35907054 177.45587134 C59.34321636 164.48620356 59.3048074 151.51663352 59.26447725 138.54702234 C59.18201422 111.86511615 59.12796212 85.18321259 59.0925293 58.50120544 C57.8279892 58.495737 57.8279892 58.495737 56.53790283 58.49015808 C48.59219524 58.45228761 40.64689851 58.39544596 32.70148087 58.3173027 C28.61664475 58.27779725 24.53202518 58.24562407 20.44702148 58.23020935 C16.50453254 58.21506259 12.56263881 58.18065339 8.62041473 58.13289642 C7.11658655 58.11806197 5.61267339 58.11016324 4.10877228 58.10932159 C2.0014759 58.10695617 -0.10416979 58.07991606 -2.21118164 58.04710388 C-3.41031189 58.03822144 -4.60944214 58.02933899 -5.84490967 58.02018738 C-9.49813768 57.40111095 -10.68430571 56.41044941 -12.9074707 53.50120544 C-13.40867615 51.18687439 -13.40867615 51.18687439 -13.40917969 48.61253357 C-13.41856064 47.64472961 -13.42794159 46.67692566 -13.43760681 45.67979431 C-13.42637283 44.64117249 -13.41513885 43.60255066 -13.40356445 42.53245544 C-13.4057473 40.92376587 -13.4057473 40.92376587 -13.40797424 39.28257751 C-13.40631515 37.01639589 -13.39475279 34.75020302 -13.37402344 32.4841156 C-13.34507797 29.01406525 -13.35341322 25.54554324 -13.36645508 22.07542419 C-13.3602174 19.87359385 -13.35182623 17.67176833 -13.34106445 15.46995544 C-13.34400009 14.43133362 -13.34693573 13.39271179 -13.34996033 12.32261658 C-13.33727615 11.35481262 -13.32459198 10.38700867 -13.31152344 9.38987732 C-13.30612045 8.54034485 -13.30071747 7.69081238 -13.29515076 6.8155365 C-12.00296433 -0.8984203 -6.51047702 -0.06448487 0 0 Z " fill="#FEFEFE" transform="translate(311.907470703125,365.49879455566406)"/>
<path d="M0 0 C0.33 0 0.66 0 1 0 C1.71848877 4.5235766 2.1256561 8.863557 2.12863445 13.44219685 C2.1318589 14.70108921 2.13508335 15.95998158 2.1384055 17.2570222 C2.13693456 18.64126299 2.13536685 20.02550368 2.13371277 21.40974426 C2.13558219 22.89043396 2.13788342 24.37112316 2.14057809 25.85181159 C2.14668737 29.91317555 2.14656349 33.9745189 2.14538372 38.03588641 C2.14517946 42.42008126 2.1507012 46.80426953 2.15544128 51.1884613 C2.1637462 59.77953307 2.16649615 68.37059797 2.16705366 76.96167342 C2.16752938 83.9549918 2.16958696 90.94830793 2.17275429 97.9416256 C2.1815644 117.80074776 2.1861737 137.65986452 2.18542381 157.51898865 C2.18538386 158.58949241 2.1853439 159.65999618 2.18530273 160.76293945 C2.18526185 161.83476342 2.18522097 162.90658738 2.18517885 164.01089086 C2.18477342 181.33611448 2.19431602 198.66131625 2.2084411 215.98653356 C2.22285433 233.80717782 2.22970841 251.62781148 2.22884732 269.44846171 C2.22851681 279.44033427 2.23119895 289.432184 2.24202538 299.42405128 C2.2511962 307.94238462 2.25325264 316.46068482 2.24651595 324.97902099 C2.24328213 329.31435929 2.24307795 333.64963426 2.2518692 337.98496628 C2.28071727 353.2227501 2.25891082 368.41575859 1.12153625 383.62162781 C1.00759593 385.14759574 1.00759593 385.14759574 0.89135379 386.7043913 C-0.75238453 405.78311717 -7.29089804 425.64532013 -19 441 C-19.66 441.33 -20.32 441.66 -21 442 C-20.34 440.02 -19.68 438.04 -19 436 C-18.34 436 -17.68 436 -17 436 C-16.67 434.35 -16.34 432.7 -16 431 C-15.34 431 -14.68 431 -14 431 C-13.69255859 429.84371094 -13.69255859 429.84371094 -13.37890625 428.6640625 C-13.10949219 427.66117188 -12.84007812 426.65828125 -12.5625 425.625 C-12.16224609 424.12839844 -12.16224609 424.12839844 -11.75390625 422.6015625 C-11 420 -11 420 -10 418 C-9.34 418 -8.68 418 -8 418 C-7.87882813 417.18015625 -7.75765625 416.3603125 -7.6328125 415.515625 C-7.46523438 414.43796875 -7.29765625 413.3603125 -7.125 412.25 C-6.96257813 411.18265625 -6.80015625 410.1153125 -6.6328125 409.015625 C-6 406 -6 406 -4.96484375 403.953125 C-3.72265677 401.43857646 -3.61758698 399.28943244 -3.4375 396.5 C-3.21448772 393.18667471 -2.80503762 390.21076319 -2 387 C-0.81315421 378.86995019 -0.84685626 370.7645733 -0.84178162 362.56736755 C-0.83721014 361.00042425 -0.83220926 359.43348215 -0.82681805 357.86654145 C-0.81329424 353.57708333 -0.80583535 349.28763309 -0.79939139 344.99815929 C-0.79136203 340.36636301 -0.77767303 335.734583 -0.76467896 331.10279846 C-0.74295209 323.08332773 -0.7247938 315.06385532 -0.70907402 307.04437065 C-0.68634081 295.44960753 -0.6582028 283.85486246 -0.62875474 272.26011468 C-0.5811211 253.44742493 -0.53784549 234.63472778 -0.49731445 215.82202148 C-0.457938 197.5495547 -0.41650663 179.27709447 -0.37231445 161.00463867 C-0.36959018 159.87791885 -0.36686591 158.75119904 -0.36405908 157.5903362 C-0.35037925 151.93779289 -0.33665905 146.28524968 -0.32291877 140.63270652 C-0.20902042 93.75515137 -0.10219641 46.87758202 0 0 Z " fill="#2B99FE" transform="translate(807,318)"/>
<path d="M0 0 C-14.52649857 9.68433238 -42.27454534 5.40705608 -59.24005806 5.34819686 C-63.98615369 5.33509784 -68.73223913 5.33963564 -73.47834778 5.34190369 C-81.67771175 5.34346776 -89.87700346 5.33414984 -98.07634926 5.31719017 C-109.93084416 5.29268624 -121.78530454 5.28498332 -133.63982203 5.2812262 C-152.87847206 5.27467947 -172.11708368 5.25476687 -191.35571289 5.22631836 C-210.03116668 5.19873154 -228.70660999 5.17752065 -247.38208008 5.16479492 C-248.53551717 5.16400675 -249.68895426 5.16321858 -250.87734399 5.16240653 C-256.66448025 5.15849108 -262.45161658 5.15470004 -268.23875296 5.15097082 C-316.15919517 5.11993037 -364.0795957 5.06714338 -412 5 C-412 4.01 -412 3.02 -412 2 C-410.76061001 2.00113916 -410.76061001 2.00113916 -409.49618185 2.00230134 C-360.50322009 2.04707724 -311.51026051 2.08138311 -262.51728239 2.10213066 C-256.63196427 2.10463201 -250.74664619 2.10722066 -244.86132812 2.10986328 C-243.68968887 2.1103879 -242.51804961 2.11091252 -241.31090613 2.11145304 C-222.35080223 2.12015083 -203.39071049 2.13591736 -184.4306138 2.15430559 C-164.96947339 2.17302206 -145.50833935 2.18412042 -126.04719031 2.18817699 C-114.04288599 2.19091842 -102.03861602 2.19957076 -90.03432228 2.21583293 C-81.7976415 2.22642137 -73.56097842 2.22959641 -65.32429133 2.22700275 C-60.57530852 2.22572436 -55.82638566 2.22765609 -51.07741356 2.23841095 C-46.72198734 2.2482021 -42.36666093 2.24859716 -38.01122995 2.24179779 C-36.44302152 2.24095844 -34.87480666 2.24344557 -33.30661075 2.24976636 C-24.729728 2.28230112 -16.44389457 1.85373179 -7.96706927 0.4290446 C-5.25724616 0.03719835 -2.73197386 -0.07978919 0 0 Z " fill="#2E77FE" transform="translate(727,799)"/>
<path d="M0 0 C1.59994061 -0.0004365 3.19988115 -0.00131285 4.79982132 -0.00258917 C9.18050386 -0.00481872 13.56116183 -0.00083395 17.94184124 0.0041889 C22.67178858 0.00851535 27.40173459 0.00704541 32.13168335 0.00628662 C40.32141001 0.00576278 48.51112869 0.00889501 56.70085335 0.01452446 C68.54175851 0.02265835 80.38265982 0.02525662 92.22356748 0.02651245 C111.4355818 0.0287 130.64759187 0.03535203 149.85960388 0.04481506 C168.52008544 0.05399686 187.18056584 0.06107394 205.84104919 0.06532288 C206.99166498 0.0655856 208.14228076 0.06584832 209.32776368 0.06611901 C215.10017947 0.06742406 220.87259527 0.06868777 226.64501107 0.06993091 C274.51789585 0.08029427 322.39077603 0.09790451 370.26365662 0.12025452 C370.26365662 0.45025452 370.26365662 0.78025452 370.26365662 1.12025452 C369.46495925 1.12161105 368.66626188 1.12296757 367.84336156 1.12436521 C320.54620053 1.2049484 273.24906913 1.29587537 225.95195444 1.40030613 C220.27777916 1.41282557 214.60360369 1.42525826 208.9294281 1.43763733 C207.79976265 1.44010332 206.6700972 1.44256932 205.50619946 1.44511004 C187.19503132 1.48487517 168.88385699 1.51760586 150.57267078 1.54775433 C131.79522155 1.57882641 113.01779872 1.61741749 94.24037915 1.66304457 C82.64603099 1.6909789 71.05170222 1.71299042 59.45732937 1.72751702 C51.51552424 1.73802814 43.5737566 1.7558174 35.63197967 1.77942155 C31.04436869 1.79283883 26.45681044 1.80295951 21.86917877 1.80446815 C17.67405769 1.80591826 13.47906379 1.81645082 9.28398172 1.83438893 C7.76173831 1.83926221 6.23947961 1.84072364 4.71722998 1.83853333 C2.65672296 1.83605401 0.59662622 1.84570971 -1.46383381 1.85854149 C-3.18453649 1.86195897 -3.18453649 1.86195897 -4.94000083 1.86544549 C-7.94539966 1.91519322 -7.94539966 1.91519322 -10.73634338 4.12025452 C-12.73634338 3.78692118 -14.73634338 3.45358785 -16.73634338 3.12025452 C-17.72634338 3.78025452 -18.71634338 4.44025452 -19.73634338 5.12025452 C-20.54071838 4.95525452 -21.34509338 4.79025452 -22.17384338 4.62025452 C-25.17135141 4.0353749 -26.20665653 4.52748872 -28.73634338 6.12025452 C-28.73634338 5.46025452 -28.73634338 4.80025452 -28.73634338 4.12025452 C-29.76759338 4.59462952 -30.79884338 5.06900452 -31.86134338 5.55775452 C-34.17712363 6.62301343 -36.07043717 7.1729106 -38.61134338 7.57337952 C-43.98271753 8.51336999 -48.77925386 10.91054662 -53.73634338 13.12025452 C-54.46337463 13.44123108 -55.19040588 13.76220764 -55.93946838 14.09291077 C-62.86559729 17.34481275 -69.33508452 21.70419768 -74.73634338 27.12025452 C-75.89685885 27.90031798 -77.06415902 28.67033799 -78.23634338 29.43275452 C-91.4499778 39.14722279 -101.67907639 56.73124604 -105.06056213 72.45619202 C-105.69159582 74.94385084 -106.52013566 76.8760617 -107.73634338 79.12025452 C-109.69531658 84.07530437 -110.29182039 88.85616648 -110.73634338 94.12025452 C-113.04273463 90.66066764 -112.90110538 89.03133605 -112.33009338 85.01478577 C-108.70285089 67.33197862 -101.25574319 50.99983211 -89.73634338 37.12025452 C-88.98610901 36.14378967 -88.98610901 36.14378967 -88.22071838 35.14759827 C-72.24463263 14.9938579 -45.76623773 4.12355299 -20.96986485 0.58236027 C-14.00179914 -0.16183066 -6.99822841 -0.01422074 0 0 Z " fill="#05ADFE" transform="translate(329.73634338378906,215.87974548339844)"/>
<path d="M0 0 C0.66 0.33 1.32 0.66 2 1 C2.04577851 34.64027595 2.08101975 68.28054414 2.10213066 101.92084432 C2.10463207 105.89246072 2.10722071 109.86407705 2.10986328 113.83569336 C2.1103879 114.6263701 2.11091252 115.41704684 2.11145304 116.23168349 C2.12015546 129.03391971 2.13592455 141.83613798 2.15430559 154.63836355 C2.17300916 167.77479038 2.18411769 180.91120781 2.18817699 194.04764742 C2.1909211 202.1534126 2.19958797 210.25912701 2.21583293 218.36487656 C2.22765533 224.58054861 2.22891018 230.79618195 2.22621536 237.01186371 C2.22676616 239.56160482 2.23075206 242.11134783 2.23841095 244.6610775 C2.24834965 248.14005384 2.24597262 251.61881228 2.24050903 255.09779358 C2.24633472 256.10850499 2.2521604 257.1192164 2.25816262 258.16055542 C2.20446816 270.79553184 2.20446816 270.79553184 -2 275 C-4.3664856 275.24050903 -4.3664856 275.24050903 -7.36767578 275.22705078 C-9.04919235 275.22682419 -9.04919235 275.22682419 -10.76467896 275.22659302 C-11.97928802 275.21627045 -13.19389709 275.20594788 -14.4453125 275.1953125 C-15.68546112 275.1924826 -16.92560974 275.18965271 -18.20333862 275.18673706 C-21.50124633 275.17742174 -24.79895972 275.1594489 -28.09680176 275.1373291 C-31.4616457 275.11687474 -34.82651807 275.10773623 -38.19140625 275.09765625 C-44.79434723 275.07556519 -51.39715771 275.04206483 -58 275 C-58 274.67 -58 274.34 -58 274 C-56.99521858 273.99120064 -56.99521858 273.99120064 -55.97013855 273.98222351 C-49.01097968 273.9183902 -42.05228759 273.83399672 -35.09350586 273.73754883 C-32.49493557 273.70425257 -29.89629213 273.67623546 -27.29760742 273.65356445 C-23.56657681 273.62010549 -19.83621939 273.56779271 -16.10546875 273.51171875 C-14.93976852 273.50532883 -13.7740683 273.4989389 -12.57304382 273.49235535 C-11.49214981 273.47256119 -10.4112558 273.45276703 -9.29760742 273.43237305 C-8.34496506 273.42126999 -7.39232269 273.41016693 -6.41081238 273.39872742 C-3.50154554 272.91755996 -2.79131937 272.29781686 -1 270 C-0.54847699 267.84532798 -0.54847699 267.84532798 -0.61523914 265.41416645 C-0.6057826 264.4676765 -0.59632606 263.52118655 -0.58658296 262.54601508 C-0.59143053 261.50419757 -0.59627811 260.46238005 -0.60127258 259.38899231 C-0.59462576 258.2838699 -0.58797893 257.17874749 -0.58113068 256.04013652 C-0.56240217 252.31808794 -0.56511264 248.59635805 -0.56762695 244.87426758 C-0.5586158 242.21374635 -0.54842202 239.55325428 -0.53674316 236.89274597 C-0.51392407 231.15512809 -0.50206637 225.41757105 -0.49761391 219.67991066 C-0.49116058 211.3841929 -0.46823769 203.08858529 -0.44127061 194.79291185 C-0.39796875 181.33436882 -0.36802144 167.87583041 -0.34643555 154.41723633 C-0.32543603 141.34201786 -0.29816993 128.26683729 -0.26245117 115.19165039 C-0.26025235 114.38594976 -0.25805352 113.58024912 -0.25578807 112.75013331 C-0.24471867 108.70824569 -0.23352581 104.66635842 -0.22227156 100.62447131 C-0.12903835 67.08301254 -0.05746271 33.54153903 0 0 Z " fill="#2595FE" transform="translate(720,369)"/>
<path d="M0 0 C-1.125 1.5625 -1.125 1.5625 -3 3 C-5.00636471 2.70740515 -7.00714063 2.37366113 -9 2 C-9.99 2.66 -10.98 3.32 -12 4 C-12.804375 3.835 -13.60875 3.67 -14.4375 3.5 C-17.43500803 2.91512038 -18.47031315 3.4072342 -21 5 C-21 4.34 -21 3.68 -21 3 C-22.03125 3.474375 -23.0625 3.94875 -24.125 4.4375 C-26.44078024 5.50275891 -28.33409379 6.05265609 -30.875 6.453125 C-36.24637415 7.39311548 -41.04291048 9.7902921 -46 12 C-46.72703125 12.32097656 -47.4540625 12.64195312 -48.203125 12.97265625 C-55.1292539 16.22455823 -61.59874114 20.58394317 -67 26 C-68.16051546 26.78006346 -69.32781564 27.55008348 -70.5 28.3125 C-83.71363442 38.02696827 -93.94273301 55.61099152 -97.32421875 71.3359375 C-97.95525244 73.82359632 -98.78379228 75.75580718 -100 78 C-101.9589732 82.95504986 -102.55547701 87.73591196 -103 93 C-105.30639125 89.54041313 -105.16476199 87.91108153 -104.59375 83.89453125 C-100.96650751 66.2117241 -93.51939981 49.87957759 -82 36 C-81.24976563 35.02353516 -81.24976563 35.02353516 -80.484375 34.02734375 C-64.22377532 13.51469071 -37.15662147 2.69135736 -11.9375 -0.8125 C-7.74903856 -1.01195054 -4.12690601 -0.67531189 0 0 Z " fill="#21C6FE" transform="translate(322,217)"/>
<path d="M0 0 C0.33 0 0.66 0 1 0 C1.04680058 24.79189171 1.08202827 49.58377676 1.10362434 74.37570381 C1.11392001 85.88801682 1.12794757 97.40030231 1.15087891 108.91259766 C1.17086521 118.95120986 1.18372885 128.98980213 1.18817699 139.02843368 C1.19077551 144.33970157 1.19684733 149.65091246 1.21146011 154.96216202 C1.22512695 159.97060082 1.22920439 164.97895963 1.22621536 169.98741531 C1.22676148 171.81662939 1.23068432 173.64584641 1.23841095 175.47504425 C1.2914946 188.70095127 0.73670594 201.60805996 -3.125 214.375 C-3.33455322 215.07560547 -3.54410645 215.77621094 -3.76000977 216.49804688 C-7.32778481 227.79157778 -13.00359249 238.4594443 -20 248 C-20.33 247.34 -20.66 246.68 -21 246 C-20.0625 243.875 -20.0625 243.875 -19 242 C-18.34 242 -17.68 242 -17 242 C-16.67 240.35 -16.34 238.7 -16 237 C-15.34 237 -14.68 237 -14 237 C-13.79503906 236.22914063 -13.59007812 235.45828125 -13.37890625 234.6640625 C-13.10949219 233.66117188 -12.84007812 232.65828125 -12.5625 231.625 C-12.16224609 230.12839844 -12.16224609 230.12839844 -11.75390625 228.6015625 C-11 226 -11 226 -10 224 C-9.34 224 -8.68 224 -8 224 C-7.87882813 223.18015625 -7.75765625 222.3603125 -7.6328125 221.515625 C-7.46523438 220.43796875 -7.29765625 219.3603125 -7.125 218.25 C-6.96257813 217.18265625 -6.80015625 216.1153125 -6.6328125 215.015625 C-6 212 -6 212 -4.96484375 209.953125 C-3.72265677 207.43857646 -3.61758698 205.28943244 -3.4375 202.5 C-3.21452484 199.18722622 -2.80829958 196.20982937 -2 193 C-0.64869255 184.07479866 -0.82492297 175.09206905 -0.79467773 166.08764648 C-0.78508699 164.27353193 -0.77507622 162.45941956 -0.76467896 160.64530945 C-0.73775341 155.74105414 -0.71667735 150.83678933 -0.69667697 145.93250155 C-0.67474082 140.79955252 -0.64738961 135.66663236 -0.62062073 130.53370667 C-0.57079666 120.82296399 -0.52581985 111.1122052 -0.48259836 101.40143114 C-0.43313784 90.34216346 -0.37825252 79.28292476 -0.32291877 68.22368515 C-0.20925671 45.48248383 -0.10238359 22.74125469 0 0 Z " fill="#2786FE" transform="translate(807,512)"/>
<path d="M0 0 C22.77 0 45.54 0 69 0 C69 0.99 69 1.98 69 3 C60.29867104 2.91572283 51.59754058 2.82088936 42.89647865 2.71247292 C38.85647662 2.66246793 34.81650126 2.61613852 30.77636719 2.578125 C26.87942462 2.54132492 22.98270309 2.49497987 19.08594894 2.44193649 C17.59720094 2.42336435 16.10840551 2.40826686 14.61958694 2.39665604 C12.53864014 2.37984131 10.45820267 2.35081943 8.37744141 2.31884766 C6.59873154 2.29886215 6.59873154 2.29886215 4.78408813 2.2784729 C2 2 2 2 0 0 Z " fill="#1EA8FE" transform="translate(302,423)"/>
<path d="M0 0 C2 2 2 2 2.15234375 4.80859375 C0.94177167 25.25625665 -5.4468208 46.53844311 -18 63 C-18.99 63.495 -18.99 63.495 -20 64 C-19.01 61.03 -19.01 61.03 -18 58 C-17.34 58 -16.68 58 -16 58 C-15.67 56.35 -15.34 54.7 -15 53 C-14.34 53 -13.68 53 -13 53 C-12.79503906 52.22914063 -12.59007812 51.45828125 -12.37890625 50.6640625 C-12.10949219 49.66117188 -11.84007812 48.65828125 -11.5625 47.625 C-11.29566406 46.62726562 -11.02882813 45.62953125 -10.75390625 44.6015625 C-10 42 -10 42 -9 40 C-8.34 40 -7.68 40 -7 40 C-6.81824219 38.77023437 -6.81824219 38.77023437 -6.6328125 37.515625 C-6.46523438 36.43796875 -6.29765625 35.3603125 -6.125 34.25 C-5.96257813 33.18265625 -5.80015625 32.1153125 -5.6328125 31.015625 C-5 28 -5 28 -3.96484375 25.953125 C-2.72265677 23.43857646 -2.61758698 21.28943244 -2.4375 18.5 C-2.21486857 15.19233301 -1.8325384 12.20207075 -1 9 C-0.78807905 7.41974995 -0.60076629 5.83601539 -0.4375 4.25 C-0.35371094 3.45078125 -0.26992188 2.6515625 -0.18359375 1.828125 C-0.09271484 0.92320312 -0.09271484 0.92320312 0 0 Z " fill="#3B7EFE" transform="translate(806,696)"/>
<path d="M0 0 C0.33 0 0.66 0 1 0 C1.04966586 5.14118055 1.08584495 10.28221951 1.10986328 15.42358398 C1.11988268 17.17035355 1.13350195 18.9171065 1.15087891 20.66381836 C1.17530669 23.18347285 1.18652389 25.70290439 1.1953125 28.22265625 C1.20563507 28.99585709 1.21595764 29.76905792 1.22659302 30.56568909 C1.22758393 35.42136702 0.65712739 39.41872264 -1 44 C-3 46 -3 46 -5.3664856 46.24050903 C-6.85207474 46.2338472 -6.85207474 46.2338472 -8.36767578 46.22705078 C-10.04919235 46.22682419 -10.04919235 46.22682419 -11.76467896 46.22659302 C-12.97928802 46.21627045 -14.19389709 46.20594788 -15.4453125 46.1953125 C-16.68546112 46.1924826 -17.92560974 46.18965271 -19.20333862 46.18673706 C-22.50124633 46.17742174 -25.79895972 46.1594489 -29.09680176 46.1373291 C-32.4616457 46.11687474 -35.82651807 46.10773623 -39.19140625 46.09765625 C-45.79434723 46.07556519 -52.39715771 46.04206483 -59 46 C-59 45.67 -59 45.34 -59 45 C-58.33014572 44.99413376 -57.66029144 44.98826752 -56.97013855 44.98222351 C-50.01097968 44.9183902 -43.05228759 44.83399672 -36.09350586 44.73754883 C-33.49493557 44.70425257 -30.89629213 44.67623546 -28.29760742 44.65356445 C-24.56657681 44.62010549 -20.83621939 44.56779271 -17.10546875 44.51171875 C-15.93976852 44.50532883 -14.7740683 44.4989389 -13.57304382 44.49235535 C-11.9517028 44.46266411 -11.9517028 44.46266411 -10.29760742 44.43237305 C-9.34496506 44.42126999 -8.39232269 44.41016693 -7.41081238 44.39872742 C-4.97056436 44.17511355 -4.97056436 44.17511355 -3.20166016 42.72949219 C-1.7514196 40.64223008 -1.57695239 39.42380978 -1.47583008 36.89575195 C-1.41610771 35.6648156 -1.41610771 35.6648156 -1.35517883 34.40901184 C-1.31278328 33.0870002 -1.31278328 33.0870002 -1.26953125 31.73828125 C-1.229384 30.83248825 -1.18923676 29.92669525 -1.14787292 28.99345398 C-1.02271168 26.10018188 -0.91737679 23.2065715 -0.8125 20.3125 C-0.73112215 18.35085691 -0.64845564 16.38926682 -0.56445312 14.42773438 C-0.36134366 9.61897695 -0.1760115 4.80982243 0 0 Z " fill="#1E7EFE" transform="translate(721,598)"/>
<path d="M0 0 C4.63420375 0.57266776 8.19605493 2.55662559 12.125 4.9375 C12.78226074 5.33356445 13.43952148 5.72962891 14.11669922 6.13769531 C20.43996246 10.07032536 25.72358034 14.74099427 31 20 C31.85722656 20.84433594 32.71445312 21.68867188 33.59765625 22.55859375 C35.59422274 24.58762473 37.47894839 26.63782251 39.3125 28.8125 C39.82425781 29.41707031 40.33601562 30.02164062 40.86328125 30.64453125 C41.23839844 31.09183594 41.61351562 31.53914063 42 32 C41.505 32.99 41.505 32.99 41 34 C39.79557292 32.47005208 38.59114583 30.94010417 37.38671875 29.41015625 C35.94316909 27.72844923 35.94316909 27.72844923 33 27 C32.33333333 25.33333333 31.66666667 23.66666667 31 22 C30.01 21.67 29.02 21.34 28 21 C26.81516594 19.51895742 25.63102341 18.03734581 24.453125 16.55078125 C22.03019691 13.96502197 19.11500581 12.66875311 16 11 C15.113125 10.278125 14.22625 9.55625 13.3125 8.8125 C11.01406734 7.01102575 9.7531524 6.64240223 7 6 C6 5 5 4 4 3 C1.89667109 2.28552357 1.89667109 2.28552357 0 2 C0 1.34 0 0.68 0 0 Z " fill="#1CB0FE" transform="translate(746,226)"/>
<path d="M0 0 C-14.99509656 9.99673104 -42.76114242 4.80875751 -60 4 C-60 3.67 -60 3.34 -60 3 C-58.90236328 2.98018066 -57.80472656 2.96036133 -56.67382812 2.93994141 C-52.52112496 2.86268475 -48.36871896 2.77417585 -44.21630859 2.68261719 C-42.43414259 2.64481464 -40.65191281 2.60988651 -38.86962891 2.578125 C-28.5597055 2.39225596 -18.47884927 1.89528732 -8.26757812 0.41552734 C-5.45942087 0.05842307 -2.82423954 -0.08231788 0 0 Z " fill="#4180FE" transform="translate(727,799)"/>
<path d="M0 0 C-1.125 1.5625 -1.125 1.5625 -3 3 C-5.00636471 2.70740515 -7.00714063 2.37366113 -9 2 C-9.99 2.66 -10.98 3.32 -12 4 C-14.6875 3.625 -14.6875 3.625 -17 3 C-17 2.01 -17 1.02 -17 0 C-11.06390334 -0.89316269 -5.93024803 -0.97040422 0 0 Z " fill="#31C9FE" transform="translate(322,217)"/>
<path d="M0 0 C0.66 0.66 1.32 1.32 2 2 C1.98252112 4.59269983 1.86231408 7.0525154 1.625 9.625 C1.56828125 10.33140625 1.5115625 11.0378125 1.453125 11.765625 C1.31159079 13.51121361 1.15702613 15.25573673 1 17 C0.01 17.33 -0.98 17.66 -2 18 C-1.8590651 15.56212615 -1.71245458 13.12482147 -1.5625 10.6875 C-1.52318359 9.99720703 -1.48386719 9.30691406 -1.44335938 8.59570312 C-1.25072585 5.52838465 -0.97677283 2.93031848 0 0 Z " fill="#4589FE" transform="translate(806,696)"/>
<path d="M0 0 C0.90105469 0.01804688 1.80210937 0.03609375 2.73046875 0.0546875 C3.41753906 0.07789063 4.10460937 0.10109375 4.8125 0.125 C4.8125 1.115 4.8125 2.105 4.8125 3.125 C-0.03242197 4.63903812 -3.4466011 3.49102172 -8.1875 2.125 C-4.87379 -0.08414 -3.8428979 -0.09981553 0 0 Z " fill="#40BFFE" transform="translate(705.1875,215.875)"/>
<path d="M0 0 C0.99 0.33 1.98 0.66 3 1 C1.42210402 2.15330947 -0.1625482 3.29737927 -1.75 4.4375 C-2.63171875 5.07558594 -3.5134375 5.71367188 -4.421875 6.37109375 C-6.72699125 7.8275081 -8.34349572 8.55931821 -11 9 C-10.67 8.34 -10.34 7.68 -10 7 C-9.34 7 -8.68 7 -8 7 C-7.67 6.01 -7.34 5.02 -7 4 C-5.67203709 3.64587656 -4.33783393 3.31478446 -3 3 C-1.26973898 1.52109931 -1.26973898 1.52109931 0 0 Z " fill="#3779FE" transform="translate(762,781)"/>
<path d="M0 0 C1.75211782 0.25677589 3.50167936 0.53102953 5.25 0.8125 C6.22453125 0.96332031 7.1990625 1.11414063 8.203125 1.26953125 C11.12322338 2.03218264 12.74205815 3.03774101 15 5 C9.33895411 4.50341703 5.12325529 3.45489316 0 1 C0 0.67 0 0.34 0 0 Z " fill="#287EFE" transform="translate(284,795)"/>
<path d="M0 0 C-0.66 1.32 -1.32 2.64 -2 4 C-2.66 4 -3.32 4 -4 4 C-4 3.34 -4 2.68 -4 2 C-4.928125 2.20625 -5.85625 2.4125 -6.8125 2.625 C-10 3 -10 3 -13 1 C-8.62426048 0.40667939 -4.42471556 -0.13827236 0 0 Z " fill="#3ABDFE" transform="translate(725,218)"/>
<path d="M0 0 C0.33 0 0.66 0 1 0 C3 7.625 3 7.625 3 11 C2.34 11.66 1.68 12.32 1 13 C-0.00496852 9.98509443 -0.10335303 7.95818308 -0.0625 4.8125 C-0.05347656 3.91144531 -0.04445312 3.01039063 -0.03515625 2.08203125 C-0.02355469 1.39496094 -0.01195312 0.70789063 0 0 Z " fill="#258AFE" transform="translate(217,703)"/>
<path d="M0 0 C0.33 0.99 0.66 1.98 1 3 C1.66 3 2.32 3 3 3 C3.625 5.3125 3.625 5.3125 4 8 C3.01 9.485 3.01 9.485 2 11 C0.57741188 7.17679443 -0.24042276 4.08718695 0 0 Z " fill="#2687FE" transform="translate(219,717)"/>
<path d="M0 0 C1.9375 0.0625 1.9375 0.0625 4 1 C5.25 4.0625 5.25 4.0625 6 7 C5.34 7 4.68 7 4 7 C3.731875 6.195625 3.46375 5.39125 3.1875 4.5625 C2.795625 3.716875 2.40375 2.87125 2 2 C1.01 1.67 0.02 1.34 -1 1 C-0.67 0.67 -0.34 0.34 0 0 Z " fill="#2BB4FE" transform="translate(775,246)"/>
</svg>
